# xmcd
#
# Track frame offsets:
#	150
#	12681
#	25744
#	37365
#	49909
#	62157
#	74410
#	85861
#	97571
#	109518
#	118925
#	130793
#	142218
#	154256
#	166612
#	177650
#	190073
#	203140
#	214569
#	226695
#	238587
#	250304
#	262994
#	274989
#	287204
#	300213
#	312422
#	325979
#	339212
#
# Disc length: 4671 seconds
# Revision: 0
# Processed by: cddbd v1.5.2PL0 Copyright (c) Steve Scherf et al.
# Submitted via: dBpowerAMP V12.0
#
DISCID=a3123d1d
DTITLE=Bob Wills and His Texas Playboys - Take Me Back To Tulsa, Disc 2 of 4
DYEAR=2001
DGENRE=Country
TTITLE0=Black Rider
TTITLE1=Pray For The Lights To Go Out
TTITLE2=San Antonio Rose
TTITLE3=Carolina In The Morning
TTITLE4=Silver Bells
TTITLE5=Beaumont Rag
TTITLE6=Twinkle Twinkle Little Star
TTITLE7=Whoa Baby
TTITLE8=I Wonder If You Feel The Way I Do
TTITLE9=My Window Faces South
TTITLE10=That's What I Like About The South
TTITLE11=The Waltz You Saved For Me
TTITLE12=Prosperity Special
TTITLE13=Don't Let The Deal Go Down
TTITLE14=You're Okay
TTITLE15=Lone Star Rag
TTITLE16=Corrine Corrina
TTITLE17=Bob Wills Special
TTITLE18=Time Changes Everything
TTITLE19=Big Beaver
TTITLE20=New San Antonio Rose
TTITLE21=I Knew The Moment I Lost You
TTITLE22=Twin Guitar Special
TTITLE23=Take Me Back To Tulsa
TTITLE24=Takin' It Home
TTITLE25=Please Don't Leave Me
TTITLE26=Cherokee Maiden
TTITLE27=Dusty Skies
TTITLE28=My Life's Been A Pleasure
EXTD=
EXTT0=
EXTT1=
EXTT2=
EXTT3=
EXTT4=
EXTT5=
EXTT6=
EXTT7=
EXTT8=
EXTT9=
EXTT10=
EXTT11=
EXTT12=
EXTT13=
EXTT14=
EXTT15=
EXTT16=
EXTT17=
EXTT18=
EXTT19=
EXTT20=
EXTT21=
EXTT22=
EXTT23=
EXTT24=
EXTT25=
EXTT26=
EXTT27=
EXTT28=
PLAYORDER=
